<!-- Generator: Adobe Illustrator 24.1.1, SVG Export Plug-In  -->
<svg version="1.1" xmlns="http://www.w3.org/2000/svg" xmlns:xlink="http://www.w3.org/1999/xlink" x="0px" y="0px" width="378.4px"
	 height="382.4px" viewBox="0 0 378.4 382.4" style="enable-background:new 0 0 378.4 382.4;" xml:space="preserve">
<defs>
</defs>
<g>
	<path d="M183.2,28.8c-60.8,0-117.6,29.6-163.2,80l-9.6-9.6C61.6,40.8,128,0,204.8,0C268,0,378.4,51.2,378.4,165.6
		c0,110.4-125.6,208-199.2,216.8l-20.8-43.2c-25.6,26.4-56.8,42.4-88.8,42.4C16.8,381.6,0,330.4,0,295.2c0-98.4,78.4-180,137.6-180
		c35.2,0,58.4,15.2,68.8,40L256,112l-68,247.2c85.6-35.2,135.2-130.4,135.2-190.4C323.2,106.4,272,28.8,183.2,28.8z M196,183.2
		c-5.6-28-20.8-40-52-40c-62.4,0-97.6,104-97.6,156.8c0,40.8,19.2,52.8,38.4,52.8c32,0,57.6-13.6,76.8-40.8L196,183.2z"/>
</g>
</svg>
