<svg version="1.1" id="Capa_1" xmlns="http://www.w3.org/2000/svg" x="0" y="0" viewBox="0 0 512 512" xml:space="preserve"><style>.st0{fill:#fff}</style><path class="st0" d="M486 86a43 43 0 00-43-42h-83l-3-11c-4-20-24-32-43-27L52 67c-19 5-31 24-26 43l41 176 11-4-41-174c-3-13 5-26 18-29l262-61 6-1c11 0 20 8 23 18l86 369c3 13-5 26-18 29l-218 51h-1l-43 10c-13 3-26-5-29-17l-13-56-11 3 13 55a36 36 0 0043 27l43-10 247-1c24-1 43-20 43-43l-2-366zm-41 397l-195 1 167-39c19-5 31-24 27-44L363 57l80-1c17 0 30 14 31 30l2 366c0 17-14 31-31 31z"/><path class="st0" d="M137 223a112 112 0 10-1 224 112 112 0 001-224zm66 119h-59v65h-18v-65H67v-15h59v-59h18v59h59v15z"/></svg>