<svg xmlns="http://www.w3.org/2000/svg" viewBox="0 0 1000 1000"><path d="M104 11c-41 5-77 36-90 77-5 16-5 44-1 60 9 29 3 22 174 193l159 159-159 159C16 830 22 824 13 852c-4 16-4 44 1 61 11 34 39 62 73 73 17 5 45 6 61 1 29-9 22-3 193-174l159-158 159 158c171 171 164 165 193 174 16 5 44 4 61-1 34-11 62-39 73-73 5-17 5-45 1-61-9-28-3-22-174-193L654 500l159-159c171-171 165-164 174-193 4-16 4-44-1-60-11-35-39-63-73-74-17-5-45-5-61 0-29 8-22 2-193 173L500 346 341 187A1757 1757 0 00171 23c-22-11-45-15-67-12z" fill="#fff"/></svg>