<svg version="1.1" id="Capa_1" xmlns="http://www.w3.org/2000/svg" x="0" y="0" viewBox="0 0 512 512" xml:space="preserve"><defs><style>.wht{fill:#fff}</style></defs><path class="wht" d="M256 183c-13 0-22 5-22 13v108c0 7 9 13 22 13 12 0 22-6 22-13V196c0-8-10-13-22-13zM256 116c-13 0-23 10-23 20 0 11 10 21 23 21s23-10 23-21c0-10-10-20-23-20z"/><path class="wht" d="M256 0a220 220 0 00-67 429l50 74a20 20 0 0034 0l50-74A220 220 0 00256 0zm49 393c-5 1-9 4-12 8l-37 55-37-55c-3-4-7-7-12-8a180 180 0 1198 0z"/></svg>