<svg xmlns="http://www.w3.org/2000/svg" viewBox="0 0 265.4 265.4"><g fill="#fff"><path d="M194.2 123.7L116 72.6c-2-1.3-4-2-6.1-2-5.5 0-9.7 4.5-9.7 10.5v103.2c0 6 4.2 10.5 9.7 10.5 2 0 4.2-.7 6-2l78.2-51c3.2-2.2 5-5.5 5-9.1 0-3.6-1.8-6.9-5-9zm-78.9 51.7V90l65.3 42.7-65.3 42.7z"/><path d="M132.7 0A132.9 132.9 0 000 132.7c0 73.2 59.5 132.7 132.7 132.7s132.7-59.5 132.7-132.7C265.4 59.5 205.9 0 132.7 0zm0 250.4A117.8 117.8 0 0115 132.7C15 67.8 67.8 15 132.7 15s117.7 52.8 117.7 117.7-52.8 117.7-117.7 117.7z"/></g></svg>